{
  "source": "C:\\Users\\Peter\\Desktop\\stuff\\MIUN\\quantitative_research\\video_compression\\videos\\BVI-HD\\BVI-HD_CDVL_videos\\ORIG\\ParkPlay_1920x1080_50fps.mp4",
  "output": "C:\\Users\\Peter\\Desktop\\stuff\\MIUN\\quantitative_research\\video_compression\\compressed_videos\\BVI-HD\\vp9\\1.5\\ParkPlay_1920x1080_50fps_vp9.webm",
  "codec": "vp9",
  "ok": "Input #0, mov,mp4,m4a,3gp,3g2,mj2, from 'C:\\Users\\Peter\\Desktop\\stuff\\MIUN\\quantitative_research\\video_compression\\videos\\BVI-HD\\BVI-HD_CDVL_videos\\ORIG\\ParkPlay_1920x1080_50fps.mp4':\n  Metadata:\n    major_brand     : isom\n    minor_version   : 512\n    compatible_brands: isomiso2avc1mp41\n    encoder         : Lavf54.28.101\n  Duration: 00:00:05.00, start: 0.000000, bitrate: 620563 kb/s\n  Stream #0:0[0x1](und): Video: h264 (High 4:4:4 Predictive) (avc1 / 0x31637661), yuv420p(progressive), 1920x1080, 620558 kb/s, 50 fps, 50 tbr, 50 tbn (default)\n    Metadata:\n      handler_name    : VideoHandler\n      vendor_id       : [0][0][0][0]\n[out#0/webm @ 000001a9d2f7f040] Codec AVOption b:a (set bitrate (in bits/s)) has not been used for any stream. The most likely reason is either wrong type (e.g. a video option with no video streams) or that it is a private option of some decoder which was not actually used for any stream.\nStream mapping:\n  Stream #0:0 -> #0:0 (h264 (native) -> vp9 (libvpx-vp9))\nPress [q] to stop, [?] for help\n[libvpx-vp9 @ 000001a9d2d80980] v1.15.2-100-g40561f514\nOutput #0, webm, to 'C:\\Users\\Peter\\Desktop\\stuff\\MIUN\\quantitative_research\\video_compression\\compressed_videos\\BVI-HD\\vp9\\1.5\\ParkPlay_1920x1080_50fps_vp9.webm':\n  Metadata:\n    major_brand     : isom\n    minor_version   : 512\n    compatible_brands: isomiso2avc1mp41\n    encoder         : Lavf62.3.100\n  Stream #0:0(und): Video: vp9, yuv420p(tv, progressive), 1920x1080, q=2-31, 1500 kb/s, 50 fps, 1k tbn (default)\n    Metadata:\n      encoder         : Lavc62.11.100 libvpx-vp9\n      handler_name    : VideoHandler\n      vendor_id       : [0][0][0][0]\n    Side data:\n      cpb: bitrate max/min/avg: 0/0/0 buffer size: 1500000 vbv_delay: N/A\nframe=    0 fps=0.0 q=0.0 size=       0KiB time=N/A bitrate=N/A speed=N/A elapsed=0:00:00.51    \nframe=    3 fps=2.6 q=60.0 size=       1KiB time=00:00:00.06 bitrate=  84.5kbits/s speed=0.0514x elapsed=0:00:01.16    \nframe=   10 fps=5.9 q=63.0 size=       1KiB time=00:00:00.20 bitrate=  25.4kbits/s speed=0.118x elapsed=0:00:01.68    \nframe=   15 fps=6.7 q=62.0 size=       1KiB time=00:00:00.30 bitrate=  16.9kbits/s speed=0.135x elapsed=0:00:02.22    \nframe=   20 fps=7.3 q=62.0 size=       1KiB time=00:00:00.40 bitrate=  12.7kbits/s speed=0.145x elapsed=0:00:02.75    \nframe=   25 fps=7.7 q=62.0 size=       1KiB time=00:00:00.50 bitrate=  10.1kbits/s speed=0.153x elapsed=0:00:03.26    \nframe=   30 fps=7.9 q=63.0 size=       1KiB time=00:00:00.60 bitrate=   8.5kbits/s speed=0.158x elapsed=0:00:03.79    \nframe=   35 fps=8.1 q=62.0 size=       1KiB time=00:00:00.70 bitrate=   7.2kbits/s speed=0.162x elapsed=0:00:04.32    \nframe=   39 fps=8.0 q=62.0 size=       1KiB time=00:00:00.78 bitrate=   6.5kbits/s speed=0.161x elapsed=0:00:04.85    \nframe=   45 fps=8.3 q=62.0 size=       1KiB time=00:00:00.90 bitrate=   5.6kbits/s speed=0.167x elapsed=0:00:05.39    \nframe=   49 fps=8.3 q=63.0 size=       1KiB time=00:00:00.98 bitrate=   5.2kbits/s speed=0.165x elapsed=0:00:05.92    \nframe=   54 fps=8.4 q=62.0 size=       1KiB time=00:00:01.08 bitrate=   4.7kbits/s speed=0.168x elapsed=0:00:06.43    \nframe=   58 fps=8.3 q=54.0 size=       1KiB time=00:00:01.16 bitrate=   4.4kbits/s speed=0.167x elapsed=0:00:06.96    \nframe=   63 fps=8.4 q=62.0 size=       1KiB time=00:00:01.26 bitrate=   4.0kbits/s speed=0.168x elapsed=0:00:07.49    \nframe=   67 fps=8.3 q=62.0 size=       1KiB time=00:00:01.34 bitrate=   3.8kbits/s speed=0.167x elapsed=0:00:08.02    \nframe=   72 fps=8.4 q=62.0 size=       1KiB time=00:00:01.44 bitrate=   3.5kbits/s speed=0.168x elapsed=0:00:08.55    \nframe=   77 fps=8.5 q=62.0 size=       1KiB time=00:00:01.54 bitrate=   3.3kbits/s speed=0.17x elapsed=0:00:09.07    \nframe=   81 fps=8.4 q=62.0 size=       1KiB time=00:00:01.62 bitrate=   3.1kbits/s speed=0.168x elapsed=0:00:09.62    \nframe=   87 fps=8.6 q=61.0 size=       1KiB time=00:00:01.74 bitrate=   2.9kbits/s speed=0.172x elapsed=0:00:10.13    \nframe=   91 fps=8.5 q=61.0 size=       1KiB time=00:00:01.82 bitrate=   2.8kbits/s speed=0.171x elapsed=0:00:10.67    \nframe=   95 fps=8.5 q=62.0 size=       1KiB time=00:00:01.90 bitrate=   2.7kbits/s speed=0.17x elapsed=0:00:11.20    \nframe=   99 fps=8.5 q=62.0 size=       1KiB time=00:00:01.98 bitrate=   2.6kbits/s speed=0.169x elapsed=0:00:11.71    \nframe=  104 fps=8.5 q=61.0 size=       1KiB time=00:00:02.08 bitrate=   2.4kbits/s speed=0.17x elapsed=0:00:12.25    \nframe=  108 fps=8.4 q=60.0 size=       1KiB time=00:00:02.16 bitrate=   2.3kbits/s speed=0.168x elapsed=0:00:12.82    \nframe=  112 fps=8.4 q=53.0 size=       1KiB time=00:00:02.24 bitrate=   2.3kbits/s speed=0.168x elapsed=0:00:13.35    \nframe=  117 fps=8.4 q=61.0 size=       1KiB time=00:00:02.34 bitrate=   2.2kbits/s speed=0.168x elapsed=0:00:13.89    \nframe=  121 fps=8.4 q=60.0 size=       1KiB time=00:00:02.42 bitrate=   2.1kbits/s speed=0.168x elapsed=0:00:14.43    \nframe=  124 fps=8.3 q=53.0 size=       1KiB time=00:00:02.48 bitrate=   2.0kbits/s speed=0.166x elapsed=0:00:14.95    \nframe=  128 fps=8.3 q=61.0 size=       1KiB time=00:00:02.56 bitrate=   2.0kbits/s speed=0.165x elapsed=0:00:15.47    \nframe=  131 fps=8.2 q=59.0 size=     512KiB time=00:00:02.62 bitrate=1600.9kbits/s speed=0.164x elapsed=0:00:16.01    \nframe=  135 fps=8.2 q=52.0 size=     512KiB time=00:00:02.70 bitrate=1553.4kbits/s speed=0.163x elapsed=0:00:16.53    \nframe=  139 fps=8.2 q=60.0 size=     512KiB time=00:00:02.78 bitrate=1508.7kbits/s speed=0.163x elapsed=0:00:17.04    \nframe=  143 fps=8.1 q=60.0 size=     512KiB time=00:00:02.86 bitrate=1466.5kbits/s speed=0.163x elapsed=0:00:17.57    \nframe=  146 fps=8.1 q=61.0 size=     512KiB time=00:00:02.92 bitrate=1436.4kbits/s speed=0.161x elapsed=0:00:18.12    \nframe=  150 fps=8.0 q=61.0 size=     512KiB time=00:00:03.00 bitrate=1398.1kbits/s speed=0.161x elapsed=0:00:18.66    \nframe=  153 fps=8.0 q=53.0 size=     512KiB time=00:00:03.06 bitrate=1370.7kbits/s speed=0.159x elapsed=0:00:19.18    \nframe=  157 fps=8.0 q=60.0 size=     512KiB time=00:00:03.14 bitrate=1335.8kbits/s speed=0.159x elapsed=0:00:19.70    \nframe=  160 fps=7.9 q=61.0 size=     512KiB time=00:00:03.20 bitrate=1310.7kbits/s speed=0.158x elapsed=0:00:20.24    \nframe=  164 fps=7.9 q=60.0 size=     512KiB time=00:00:03.28 bitrate=1278.8kbits/s speed=0.158x elapsed=0:00:20.77    \nframe=  168 fps=7.9 q=60.0 size=     512KiB time=00:00:03.36 bitrate=1248.3kbits/s speed=0.158x elapsed=0:00:21.30    \nframe=  171 fps=7.8 q=53.0 size=     512KiB time=00:00:03.42 bitrate=1226.4kbits/s speed=0.156x elapsed=0:00:21.85    \nframe=  175 fps=7.8 q=60.0 size=     512KiB time=00:00:03.50 bitrate=1198.4kbits/s speed=0.156x elapsed=0:00:22.38    \nframe=  179 fps=7.8 q=59.0 size=     512KiB time=00:00:03.56 bitrate=1178.2kbits/s speed=0.155x elapsed=0:00:22.91    \nframe=  182 fps=7.8 q=61.0 size=     512KiB time=00:00:03.64 bitrate=1152.3kbits/s speed=0.155x elapsed=0:00:23.45    \nframe=  186 fps=7.8 q=61.0 size=     512KiB time=00:00:03.72 bitrate=1127.5kbits/s speed=0.155x elapsed=0:00:23.99    \nframe=  188 fps=7.7 q=61.0 size=     512KiB time=00:00:03.76 bitrate=1115.5kbits/s speed=0.153x elapsed=0:00:24.52    \nframe=  193 fps=7.7 q=59.0 size=     512KiB time=00:00:03.86 bitrate=1086.6kbits/s speed=0.154x elapsed=0:00:25.04    \nframe=  196 fps=7.7 q=59.0 size=     512KiB time=00:00:03.92 bitrate=1070.0kbits/s speed=0.153x elapsed=0:00:25.58    \nframe=  200 fps=7.7 q=60.0 size=     512KiB time=00:00:04.00 bitrate=1048.6kbits/s speed=0.153x elapsed=0:00:26.13    \nframe=  204 fps=7.7 q=60.0 size=     512KiB time=00:00:04.08 bitrate=1028.0kbits/s speed=0.153x elapsed=0:00:26.66    \nframe=  208 fps=7.6 q=60.0 size=     512KiB time=00:00:04.16 bitrate=1008.2kbits/s speed=0.153x elapsed=0:00:27.19    \nframe=  211 fps=7.6 q=60.0 size=     512KiB time=00:00:04.22 bitrate= 993.9kbits/s speed=0.152x elapsed=0:00:27.72    \nframe=  215 fps=7.6 q=59.0 size=     512KiB time=00:00:04.30 bitrate= 975.4kbits/s speed=0.152x elapsed=0:00:28.25    \nframe=  218 fps=7.6 q=60.0 size=     512KiB time=00:00:04.36 bitrate= 962.0kbits/s speed=0.151x elapsed=0:00:28.79    \nframe=  222 fps=7.6 q=60.0 size=     512KiB time=00:00:04.44 bitrate= 944.7kbits/s speed=0.151x elapsed=0:00:29.33    \nframe=  224 fps=7.5 q=61.0 size=     512KiB time=00:00:04.48 bitrate= 936.2kbits/s speed=0.15x elapsed=0:00:29.86    \nframe=  226 fps=7.4 q=60.0 size=     512KiB time=00:00:04.52 bitrate= 927.9kbits/s speed=0.149x elapsed=0:00:30.39    \nframe=  226 fps=7.3 q=60.0 size=     512KiB time=00:00:04.52 bitrate= 927.9kbits/s speed=0.146x elapsed=0:00:30.95    \nframe=  226 fps=7.2 q=60.0 size=     512KiB time=00:00:04.52 bitrate= 927.9kbits/s speed=0.143x elapsed=0:00:31.58    \nframe=  226 fps=7.0 q=60.0 size=     512KiB time=00:00:04.52 bitrate= 927.9kbits/s speed=0.14x elapsed=0:00:32.23    \nframe=  226 fps=6.9 q=60.0 size=     512KiB time=00:00:04.52 bitrate= 927.9kbits/s speed=0.137x elapsed=0:00:32.89    \nframe=  226 fps=6.7 q=60.0 size=     512KiB time=00:00:04.52 bitrate= 927.9kbits/s speed=0.135x elapsed=0:00:33.54    \nframe=  226 fps=6.6 q=60.0 size=     512KiB time=00:00:04.52 bitrate= 927.9kbits/s speed=0.133x elapsed=0:00:34.07    \nframe=  226 fps=6.5 q=60.0 size=     512KiB time=00:00:04.52 bitrate= 927.9kbits/s speed=0.131x elapsed=0:00:34.58    \nframe=  226 fps=6.4 q=60.0 size=     512KiB time=00:00:04.52 bitrate= 927.9kbits/s speed=0.129x elapsed=0:00:35.12    \n[out#0/webm @ 000001a9d2f7f040] video:1011KiB audio:0KiB subtitle:0KiB other streams:0KiB global headers:0KiB muxing overhead: 0.236348%\nframe=  250 fps=7.0 q=59.0 Lsize=    1014KiB time=00:00:05.00 bitrate=1661.1kbits/s speed=0.141x elapsed=0:00:35.55    \n",
  "seconds": 35.83163595199585,
  "probe_out": {}
}